<svg width="54" height="51" viewBox="0 0 54 51" fill="none" xmlns="http://www.w3.org/2000/svg">
<g filter="url(#filter0_f_213_11866)">
<path d="M29.0238 37.6861C27.8842 38.7207 26.1299 38.7207 24.9904 37.6711L24.8254 37.5212C16.9535 30.3989 11.8104 25.7357 12.0054 19.9179C12.0953 17.3689 13.3998 14.9249 15.514 13.4854C19.4725 10.7864 24.3606 12.046 26.9996 15.1348C29.6386 12.046 34.5267 10.7715 38.4852 13.4854C40.5994 14.9249 41.9039 17.3689 41.9938 19.9179C42.2037 25.7357 37.0457 30.3989 29.1738 37.5512L29.0238 37.6861Z" fill="#FE9ABB"/>
</g>
<path d="M27.3799 15.46C29.8798 12.534 34.4873 11.3508 38.2021 13.8975L38.2041 13.8984C40.0586 15.1611 41.2532 17.2574 41.4648 19.4883L41.4941 19.9355C41.593 22.6743 40.4356 25.1789 38.2256 27.9199C36.0085 30.6696 32.7851 33.5943 28.8389 37.1797L28.6895 37.3145L28.6875 37.3154C27.7982 38.1228 26.4583 38.1737 25.5127 37.457L25.3291 37.3037L25.3271 37.3008L25.1621 37.1514L25.1611 37.1504L22.3418 34.5869C19.6676 32.1314 17.4407 29.9755 15.7793 27.916C13.5716 25.1793 12.4134 22.6749 12.5049 19.9355C12.5894 17.5402 13.8169 15.2452 15.7949 13.8984H15.7959C19.5124 11.3646 24.1203 12.5351 26.6191 15.46L27 15.9043L27.3799 15.46Z" fill="#FE568D" stroke="white"/>
<defs>
<filter id="filter0_f_213_11866" x="0" y="0" width="54" height="50.4602" filterUnits="userSpaceOnUse" color-interpolation-filters="sRGB">
<feFlood flood-opacity="0" result="BackgroundImageFix"/>
<feBlend mode="normal" in="SourceGraphic" in2="BackgroundImageFix" result="shape"/>
<feGaussianBlur stdDeviation="6" result="effect1_foregroundBlur_213_11866"/>
</filter>
</defs>
</svg>
