<svg width="40" height="45" viewBox="0 0 40 45" fill="none" xmlns="http://www.w3.org/2000/svg">
<g filter="url(#filter0_f_213_11887)">
<path fill-rule="evenodd" clip-rule="evenodd" d="M20.4712 8.00028C21.1588 7.98726 21.7673 8.43467 21.9476 9.08582L25.4062 21.5723L27.679 20.1136C28.3051 19.7118 29.1374 19.8241 29.6297 20.377L31.6296 22.6234C32.1746 23.2356 32.1107 24.1654 31.4869 24.7002C30.863 25.235 29.9154 25.1723 29.3704 24.5601L28.229 23.2781L25.3212 25.1444C24.9194 25.4023 24.4161 25.4559 23.9674 25.2886C23.5186 25.1212 23.1786 24.7533 23.0526 24.2987L20.6189 15.5124L15.9618 35.3149C15.8167 35.9321 15.2854 36.3889 14.6428 36.4491C14.0002 36.5093 13.3904 36.1594 13.1289 35.5803L8.12899 24.509C7.79337 23.7658 8.13526 22.8963 8.89264 22.567C9.65002 22.2377 10.5361 22.5732 10.8717 23.3163L14.0498 30.3536L19.0386 9.14089C19.1932 8.4834 19.7837 8.01329 20.4712 8.00028Z" fill="#22467C"/>
</g>
<path d="M20.4619 7.5C21.3718 7.48284 22.1868 8.07562 22.4297 8.95215L25.7061 20.7842L27.4092 19.6924C28.2407 19.159 29.3459 19.307 30.0029 20.0449L32.0029 22.291C32.7348 23.1131 32.6479 24.364 31.8125 25.0801C30.9827 25.7914 29.7241 25.7091 28.9971 24.8926L28.1396 23.9297L25.5908 25.5654C25.0562 25.9084 24.3885 25.9788 23.793 25.7568C23.1969 25.5346 22.7398 25.0443 22.5703 24.4326L20.6582 17.5283L16.4482 35.4297C16.2526 36.2608 15.5405 36.8676 14.6895 36.9473C13.8388 37.0269 13.0241 36.564 12.6729 35.7861L7.67285 24.7148C7.22001 23.712 7.6859 22.5465 8.69336 22.1084C9.69596 21.6725 10.8765 22.1129 11.3271 23.1104L13.8994 28.8066L18.5518 9.02637C18.7601 8.14074 19.5518 7.51723 20.4619 7.5Z" fill="#22467C" stroke="white" stroke-linecap="round" stroke-linejoin="round"/>
<defs>
<filter id="filter0_f_213_11887" x="0" y="0" width="40" height="44.4558" filterUnits="userSpaceOnUse" color-interpolation-filters="sRGB">
<feFlood flood-opacity="0" result="BackgroundImageFix"/>
<feBlend mode="normal" in="SourceGraphic" in2="BackgroundImageFix" result="shape"/>
<feGaussianBlur stdDeviation="4" result="effect1_foregroundBlur_213_11887"/>
</filter>
</defs>
</svg>
