<svg width="198" height="76" viewBox="0 0 198 76" fill="none" xmlns="http://www.w3.org/2000/svg">
<path d="M196.596 28.6806C193.288 24.7913 188.755 19.4229 184.834 26.1608C181.888 31.2279 180.392 39.7734 179.078 47.333C178.624 49.9898 178.171 52.4822 177.695 54.783C177.536 55.5773 177.332 56.6181 177.129 57.8232C176.154 63.1094 174.545 71.9836 172.301 73.3257C171.576 73.764 170.828 73.3805 170.012 72.148C168.494 69.8199 167.61 64.9719 167.293 62.9725C166.001 54.5365 164.936 45.9087 163.916 37.5823C163.576 34.7063 163.213 31.8304 162.851 28.9545C162.783 28.4615 162.715 27.8315 162.624 27.1468C161.604 18.5739 159.202 -1.53015 154.125 0.96231C151.428 2.27701 149.706 12.5481 148.686 18.656C148.55 19.4777 148.437 20.2172 148.323 20.8198C147.575 25.0652 146.918 29.4201 146.284 33.6655C145.717 37.5275 145.105 41.499 144.448 45.3335C143.768 49.1955 142 59.494 139.099 61.959C138.125 62.7807 137.15 62.6712 136.085 61.6578C133.637 59.3022 132.3 54.5912 130.872 49.5789C129.535 44.9227 128.175 40.1295 125.841 37.4453C121.036 31.9126 114.101 26.4073 108.436 31.5292C107.008 32.8165 105.761 34.7885 104.537 36.7058C103.472 38.3766 102.384 40.1021 101.183 41.3073L100.957 41.5538C97.5345 45.0596 95.0868 47.5795 91.506 42.978C91.1207 42.485 90.6901 41.9098 90.2595 41.3346C87.3359 37.3631 83.3472 31.9126 79.857 36.6784C78.9958 37.8562 78.1572 39.5269 77.2507 41.2799C75.3696 44.9775 73.4659 48.7846 71.1995 48.5381C69.3185 48.3464 66.8708 45.6896 65.7603 42.622C65.2617 41.2525 64.7178 39.1982 64.1285 37.0345C62.2475 30.0227 59.8905 21.2854 56.355 22.9836C55.1312 23.5588 53.9753 26.4895 52.9555 29.0367C52.6155 29.8584 52.3209 30.6253 52.0036 31.31C51.777 31.9948 51.573 32.6795 51.3464 33.3643C48.3095 42.978 45.4312 52.0714 39.2214 45.3883C36.7511 42.7041 34.7794 40.5951 31.6745 42.2111C31.1306 42.485 30.564 42.8137 30.0201 43.115C28.2523 44.101 26.4392 45.1144 24.6035 45.2788C22.8584 45.4431 20.5014 42.5398 18.8923 39.746C18.439 38.9791 18.0084 38.1848 17.5552 37.3905C15.0849 32.9534 12.5239 28.352 8.94306 28.0507C5.99681 27.8042 3.27719 29.201 0.988185 30.5979C0.806878 30.7075 0.716224 31.0909 0.761551 31.447C0.806878 31.803 0.988185 32.0222 1.16949 31.9126C3.39051 30.5431 6.0648 29.201 8.92039 29.4201C12.2746 29.694 14.6316 33.9394 17.1246 38.4039C17.5778 39.1982 18.0084 39.9926 18.4617 40.7869C19.3003 42.2111 22.2012 46.8947 24.6488 46.6208C26.5526 46.4291 28.411 45.4157 30.2014 44.4023C30.7453 44.101 31.2892 43.7997 31.8558 43.4984C34.7114 42.0194 36.4791 43.9367 38.9268 46.5661C45.6805 53.8517 48.8534 43.7997 51.9356 34.0764C52.1622 33.3916 52.3662 32.7069 52.5475 32.1043C52.8195 31.5018 53.1368 30.7075 53.4767 29.8584C54.3833 27.585 55.5164 24.7365 56.5136 24.2709C59.5732 22.7919 61.7715 31.0361 63.5393 37.637C64.1285 39.8556 64.6951 41.9372 65.2164 43.3889C66.4629 46.7852 69.0692 49.6337 71.1542 49.8528C73.6925 50.1267 75.8229 45.9361 77.704 42.2111C78.5878 40.4856 79.4037 38.8696 80.2196 37.7466C83.3471 33.5012 86.9733 38.4313 89.8742 42.4028C90.3048 43.0054 90.7354 43.5806 91.1207 44.0736C94.9962 49.0859 97.7384 46.2648 101.206 42.7041L101.433 42.4576C102.679 41.1703 103.812 39.4174 104.877 37.7192C106.056 35.8567 107.28 33.9394 108.64 32.7069C114.056 27.8042 120.787 33.1725 125.456 38.5683C127.632 41.0607 128.878 45.4979 130.238 50.1815C131.666 55.139 133.116 60.2883 135.745 62.8081C136.969 63.9859 138.17 64.1228 139.303 63.1368C142.136 60.6991 143.927 52.0166 145.037 45.6896C145.717 41.8003 146.306 37.8014 146.873 33.9394C147.507 29.7214 148.142 25.3665 148.913 21.1759C149.026 20.5733 149.139 19.8338 149.275 18.9847C150.182 13.5068 151.881 3.31782 154.238 2.16745C158.68 0.031062 161.037 19.8612 161.944 27.3385C162.035 28.0507 162.103 28.6532 162.171 29.1736C162.533 32.0496 162.873 34.9255 163.236 37.8014C164.256 46.1552 165.298 54.783 166.613 63.2737C166.93 65.3827 167.882 70.5594 169.559 73.134C170.261 74.2022 170.964 74.75 171.667 74.75C171.916 74.75 172.188 74.6678 172.437 74.5309C174.998 72.9971 176.63 64.0954 177.695 58.1793C177.899 57.0015 178.103 55.9607 178.262 55.1938C178.76 52.8657 179.191 50.3184 179.644 47.6616C181.004 39.9104 182.386 31.8852 185.197 27.0646C188.755 20.9567 193.038 26.0238 196.188 29.7214C196.347 29.9132 196.551 29.8036 196.642 29.4749C196.823 29.2832 196.755 28.8724 196.596 28.6806Z" stroke="url(#paint0_linear_213_11816)" stroke-width="1.5"/>
<defs>
<linearGradient id="paint0_linear_213_11816" x1="26.25" y1="37.75" x2="196.75" y2="37.75" gradientUnits="userSpaceOnUse">
<stop stop-color="#FFFDFD"/>
<stop offset="0.5" stop-color="#1857C1"/>
<stop offset="1" stop-color="#FFFDFD"/>
</linearGradient>
</defs>
</svg>
